<?xml version="1.0" encoding="utf-8"?>
<!-- Generator: Adobe Illustrator 27.9.0, SVG Export Plug-In . SVG Version: 6.00 Build 0)  -->
<svg version="1.1" id="Layer_1" xmlns="http://www.w3.org/2000/svg" xmlns:xlink="http://www.w3.org/1999/xlink" x="0px" y="0px"
	 viewBox="0 0 500 500" style="enable-background:new 0 0 500 500;" xml:space="preserve">
<style type="text/css">
	.st0{fill:#FFFFFF;}
	.st1{opacity:0.89;fill:#FFFFFF;}
	.st2{clip-path:url(#SVGID_00000024714953377499406070000007744003107741759125_);fill:#FFFFFF;}
	.st3{clip-path:url(#SVGID_00000146463002612130587950000010779745921577800592_);fill:#FFFFFF;}
	.st4{clip-path:url(#SVGID_00000151521029917666779380000008479538149288149660_);fill:#FFFFFF;}
	.st5{clip-path:url(#SVGID_00000064323340913393064650000006631709896050679994_);fill:#FFFFFF;}
	.st6{clip-path:url(#SVGID_00000019659526577126337930000006923039595496228998_);fill:#FFFFFF;}
	.st7{clip-path:url(#SVGID_00000008840273840207271330000008276543296830419641_);fill:#FFFFFF;}
	.st8{clip-path:url(#SVGID_00000155855845687964021640000010822738653082341565_);fill:#FFFFFF;}
	.st9{clip-path:url(#SVGID_00000031207015002984802270000010838220050135967904_);fill:#FFFFFF;}
	.st10{clip-path:url(#SVGID_00000042701910227365820850000017161765533283737771_);fill:#FFFFFF;}
	.st11{clip-path:url(#SVGID_00000155132653702058432030000009915080004778904989_);fill:#FFFFFF;}
	.st12{clip-path:url(#SVGID_00000034799099520226736650000007218016718569856928_);fill:#FFFFFF;}
	.st13{fill:#005BD8;}
	.st14{fill:#00448E;}
	.st15{fill:#006EEB;}
	.st16{fill:#0071EE;}
	.st17{fill:#007EFB;}
	.st18{fill:#008DFF;}
	.st19{fill:#007BF8;}
	.st20{fill:#009BFF;}
	.st21{fill:#009DFF;}
	.st22{fill:#00B6FF;}
	.st23{fill:#004ECB;}
	.st24{fill:#00C5FF;}
	.st25{fill:#00E1FF;}
	.st26{fill:#00C9FF;}
	.st27{fill:#0092FF;}
	.st28{fill:#006AE7;}
	
		.st29{clip-path:url(#SVGID_00000025429141681392878000000010187521046548955057_);fill:url(#SVGID_00000155146837818514444080000003531335678940745901_);}
	
		.st30{clip-path:url(#SVGID_00000114755691398008976050000006439069851280467350_);fill:url(#SVGID_00000058557814198308972170000015737813025840181691_);}
	
		.st31{clip-path:url(#SVGID_00000162354365690259745450000011525541463374491579_);fill:url(#SVGID_00000038399820211477628640000000970097298083207091_);}
	
		.st32{clip-path:url(#SVGID_00000015349224741680699690000006404406110893341059_);fill:url(#SVGID_00000011754109779704595840000008706082249036710041_);}
	
		.st33{clip-path:url(#SVGID_00000132067367942874825040000012221942508491018381_);fill:url(#SVGID_00000145745019477731378280000003158812203639421582_);}
	
		.st34{clip-path:url(#SVGID_00000089538449305500245280000015281933232393063087_);fill:url(#SVGID_00000010990153134806272430000012884627484629440384_);}
	
		.st35{clip-path:url(#SVGID_00000098926992970628155070000006125365983819067027_);fill:url(#SVGID_00000047055439936181562370000013595254024562426805_);}
	
		.st36{clip-path:url(#SVGID_00000152954713640765997470000003771124265471244207_);fill:url(#SVGID_00000017480663019926282210000007889303146126111916_);}
	
		.st37{clip-path:url(#SVGID_00000042013599682735060500000017930343168922130070_);fill:url(#SVGID_00000168827038527541219130000010168814253640907198_);}
	
		.st38{clip-path:url(#SVGID_00000093898126862303235550000013504467525718013581_);fill:url(#SVGID_00000081634298168592927960000007287626888522983338_);}
	
		.st39{clip-path:url(#SVGID_00000092430290108037820410000015477365071710999220_);fill:url(#SVGID_00000137129853766656604930000003121568771999243700_);}
	
		.st40{clip-path:url(#SVGID_00000154389832461033925860000015434051036973918097_);fill:url(#SVGID_00000119812185564469508060000000103879130445665715_);}
	
		.st41{clip-path:url(#SVGID_00000178907550956109815210000012818598938694327212_);fill:url(#SVGID_00000046299611656652685640000000072079143713165727_);}
	
		.st42{clip-path:url(#SVGID_00000085222752246975431100000016304000378107898031_);fill:url(#SVGID_00000173140320722579054730000003994267735111801770_);}
	
		.st43{clip-path:url(#SVGID_00000164507643791816801380000009795343570750652594_);fill:url(#SVGID_00000097489882991025389120000006536925314751635626_);}
	
		.st44{clip-path:url(#SVGID_00000101062885058322421290000012688402400811250866_);fill:url(#SVGID_00000158026751496959958790000000203097914380708224_);}
	
		.st45{clip-path:url(#SVGID_00000154415949196081745610000007011108799327462325_);fill:url(#SVGID_00000098924309328337056400000004083594660993481627_);}
	
		.st46{clip-path:url(#SVGID_00000152255962691436547020000004401271121775486599_);fill:url(#SVGID_00000031194822628231971010000014151139837785215113_);}
	
		.st47{clip-path:url(#SVGID_00000097488647824903159710000005565104659532048268_);fill:url(#SVGID_00000065042768463156351790000011581403682433546419_);}
	
		.st48{clip-path:url(#SVGID_00000182490539935104555380000009006030784940278429_);fill:url(#SVGID_00000068638733198916617690000003854847222444531108_);}
	
		.st49{clip-path:url(#SVGID_00000085243765996227950310000016765369597366884525_);fill:url(#SVGID_00000088113041196350383460000001619430857048373398_);}
	
		.st50{clip-path:url(#SVGID_00000067933977388357912370000005848627881453395629_);fill:url(#SVGID_00000016039163889285336140000008767204682662460800_);}
</style>
<g>
	<polygon class="st0" points="329.24,168.8 329.24,197.52 340.23,203.87 340.23,203.87 365.11,189.51 	"/>
	<polygon class="st1" points="340.23,203.87 340.23,344.18 365.11,329.89 365.11,189.51 	"/>
	<polygon class="st1" points="250,293.41 282.43,274.69 275.36,270.61 250,285.25 	"/>
	<polygon class="st0" points="282.69,274.53 282.69,257.82 275.63,261.88 275.63,270.46 275.36,270.61 282.43,274.69 	"/>
	<polygon class="st1" points="224.64,270.61 217.57,274.69 250,293.41 250,285.25 	"/>
	<polygon class="st0" points="224.37,270.46 224.37,261.84 217.31,257.77 217.31,274.53 217.57,274.69 224.64,270.61 	"/>
	<polygon class="st0" points="275.63,249.7 282.69,253.77 282.69,237.09 275.63,241.17 	"/>
	<polygon class="st0" points="224.37,249.66 224.37,241.17 217.31,237.09 217.31,253.72 	"/>
	<polygon class="st1" points="275.63,241.08 275.63,241.17 282.69,237.09 282.69,237 250,218.13 250,226.28 	"/>
	<polygon class="st1" points="224.37,241.08 250,226.28 250,218.13 217.31,237 217.31,237.09 224.37,241.17 	"/>
	<polygon class="st1" points="289,145.57 250,123.05 250,151.77 289,174.29 289,204.73 250,182.23 250,210.95 289,233.45 
		289,233.45 313.87,219.09 313.87,159.93 	"/>
	<polygon class="st0" points="289,278.48 250,301 250,329.72 313.87,292.84 289,278.48 	"/>
	<polygon class="st1" points="289,278.48 313.87,292.84 313.87,219.09 289,233.45 	"/>
	<polygon class="st1" points="134.89,329.72 159.77,344.05 159.77,203.87 134.89,189.51 	"/>
	<polygon class="st0" points="250,151.77 250,123.05 134.89,189.51 159.77,203.87 159.77,203.87 	"/>
	<polygon class="st0" points="211,233.45 250,210.95 250,182.23 186.13,219.09 186.13,219.09 211,233.45 	"/>
	<polygon class="st1" points="211,233.45 186.13,219.09 186.13,292.84 211,278.48 	"/>
	<polygon class="st0" points="211,278.48 211,278.48 186.13,292.84 250,329.72 250,301 	"/>
	<g>
		<defs>
			<polygon id="SVGID_1_" points="148.54,376.46 148.54,368.35 138.68,368.35 138.68,376.46 134.89,376.46 134.89,356.39 
				138.68,356.39 138.68,364.85 148.54,364.85 148.54,356.39 152.3,356.39 152.3,376.46 			"/>
		</defs>
		<use xlink:href="#SVGID_1_"  style="overflow:visible;fill:#FFFFFF;"/>
		<clipPath id="SVGID_00000000936392653334248210000012077135412154750854_">
			<use xlink:href="#SVGID_1_"  style="overflow:visible;"/>
		</clipPath>
		
			<rect x="134.89" y="356.39" style="clip-path:url(#SVGID_00000000936392653334248210000012077135412154750854_);fill:#FFFFFF;" width="17.4" height="20.07"/>
	</g>
	<g>
		<defs>
			<path id="SVGID_00000161613942833105615210000008695360277271805827_" d="M158.69,366.6c-0.09-3.38,1.86-7.2,6.59-7.2
				c4.73,0,6.62,3.78,6.57,7.17c-0.06,3.3-1.83,6.85-6.57,6.85C160.56,373.42,158.78,369.9,158.69,366.6 M154.97,366.54
				c0,5.28,3.27,10.35,10.32,10.35c7.05,0,10.24-5.19,10.29-10.38c0.06-5.25-3.38-10.55-10.29-10.55
				C158.35,355.96,154.97,361.27,154.97,366.54"/>
		</defs>
		<use xlink:href="#SVGID_00000161613942833105615210000008695360277271805827_"  style="overflow:visible;fill:#FFFFFF;"/>
		<clipPath id="SVGID_00000105403828440078669220000012179054845455298464_">
			<use xlink:href="#SVGID_00000161613942833105615210000008695360277271805827_"  style="overflow:visible;"/>
		</clipPath>
		
			<rect x="154.97" y="355.96" style="clip-path:url(#SVGID_00000105403828440078669220000012179054845455298464_);fill:#FFFFFF;" width="20.67" height="20.93"/>
	</g>
	<g>
		<defs>
			<path id="SVGID_00000095316330603593379950000007001482378827410591_" d="M192.22,356.39v11.5c0,3.44-1.78,5.53-4.9,5.53
				s-5.19-1.92-5.19-5.53v-11.5h-3.76v11.5c0,6.05,4.1,8.97,8.92,8.97c5.05,0,8.69-3.04,8.69-8.97v-11.5H192.22z"/>
		</defs>
		<use xlink:href="#SVGID_00000095316330603593379950000007001482378827410591_"  style="overflow:visible;fill:#FFFFFF;"/>
		<clipPath id="SVGID_00000103255966223801734580000003395257282693933998_">
			<use xlink:href="#SVGID_00000095316330603593379950000007001482378827410591_"  style="overflow:visible;"/>
		</clipPath>
		
			<rect x="178.37" y="356.39" style="clip-path:url(#SVGID_00000103255966223801734580000003395257282693933998_);fill:#FFFFFF;" width="17.6" height="20.47"/>
	</g>
	<g>
		<defs>
			<path id="SVGID_00000015316746758316189490000000517685923457863345_" d="M199.42,361.52c0,4.5,3.79,5.59,7.89,6.08
				c2.67,0.29,4.64,1.06,4.64,2.95c0,2.18-2.24,3.01-4.62,3.01c-2.44,0-4.76-0.98-5.65-3.18l-3.16,1.64
				c1.49,3.67,4.65,4.93,8.75,4.93c4.47,0,8.43-1.92,8.43-6.39c0-4.79-3.9-5.88-8.08-6.39c-2.41-0.29-4.47-0.77-4.47-2.52
				c0-1.49,1.35-2.67,4.16-2.67c2.18,0,4.07,1.09,4.76,2.23l3.01-1.55c-1.52-3.1-4.76-3.98-7.88-3.98
				C203.49,355.7,199.42,357.4,199.42,361.52"/>
		</defs>
		<use xlink:href="#SVGID_00000015316746758316189490000000517685923457863345_"  style="overflow:visible;fill:#FFFFFF;"/>
		<clipPath id="SVGID_00000128449074610982451580000010505218873117831099_">
			<use xlink:href="#SVGID_00000015316746758316189490000000517685923457863345_"  style="overflow:visible;"/>
		</clipPath>
		
			<rect x="198.53" y="355.68" style="clip-path:url(#SVGID_00000128449074610982451580000010505218873117831099_);fill:#FFFFFF;" width="17.17" height="21.27"/>
	</g>
	<g>
		<defs>
			<polygon id="SVGID_00000096763587541284378790000007375094750106310313_" points="218.57,356.36 218.57,376.43 233.59,376.43 
				233.59,372.71 222.33,372.71 222.33,368.18 233.19,368.18 233.19,364.65 222.33,364.65 222.33,360.03 233.59,360.03 
				233.59,356.36 			"/>
		</defs>
		<use xlink:href="#SVGID_00000096763587541284378790000007375094750106310313_"  style="overflow:visible;fill:#FFFFFF;"/>
		<clipPath id="SVGID_00000042723985129960668520000001455296232475255473_">
			<use xlink:href="#SVGID_00000096763587541284378790000007375094750106310313_"  style="overflow:visible;"/>
		</clipPath>
		
			<rect x="218.57" y="356.36" style="clip-path:url(#SVGID_00000042723985129960668520000001455296232475255473_);fill:#FFFFFF;" width="15.02" height="20.07"/>
	</g>
	<g>
		<defs>
			<path id="SVGID_00000150074508621950991490000005756484934381558930_" d="M245.15,366.6c-0.09-3.38,1.86-7.2,6.59-7.2
				c4.73,0,6.62,3.78,6.57,7.17c-0.06,3.3-1.84,6.85-6.57,6.85C247.02,373.42,245.24,369.9,245.15,366.6 M241.43,366.54
				c0,5.28,3.27,10.35,10.32,10.35c7.05,0,10.24-5.19,10.29-10.38c0.06-5.25-3.38-10.55-10.29-10.55
				C244.81,355.96,241.43,361.27,241.43,366.54"/>
		</defs>
		<use xlink:href="#SVGID_00000150074508621950991490000005756484934381558930_"  style="overflow:visible;fill:#FFFFFF;"/>
		<clipPath id="SVGID_00000023269046408365642280000004064393775686276763_">
			<use xlink:href="#SVGID_00000150074508621950991490000005756484934381558930_"  style="overflow:visible;"/>
		</clipPath>
		
			<rect x="241.43" y="355.96" style="clip-path:url(#SVGID_00000023269046408365642280000004064393775686276763_);fill:#FFFFFF;" width="20.67" height="20.93"/>
	</g>
	<g>
		<defs>
			<polygon id="SVGID_00000021097639720558156810000000448133204197625755_" points="264.83,356.39 264.83,376.43 268.61,376.43 
				268.61,369.01 278.68,369.01 278.68,365.51 268.61,365.51 268.61,360.03 279.25,360.03 279.25,356.39 			"/>
		</defs>
		<use xlink:href="#SVGID_00000021097639720558156810000000448133204197625755_"  style="overflow:visible;fill:#FFFFFF;"/>
		<clipPath id="SVGID_00000074422375317249406300000010113502465371762817_">
			<use xlink:href="#SVGID_00000021097639720558156810000000448133204197625755_"  style="overflow:visible;"/>
		</clipPath>
		
			<rect x="264.83" y="356.39" style="clip-path:url(#SVGID_00000074422375317249406300000010113502465371762817_);fill:#FFFFFF;" width="14.42" height="20.04"/>
	</g>
	<g>
		<defs>
			<path id="SVGID_00000020363728663718416780000016179903846557622944_" d="M287.08,366.54c0.03,5.22,3.18,10.35,10.64,10.35
				c2.9,0,5.56-0.95,7.63-2.98l-2.58-2.61c-1.32,1.32-3.3,2.03-5.05,2.03c-4.96,0-6.88-3.47-6.91-6.79
				c-0.03-3.36,2.06-6.97,6.91-6.97c1.75,0,3.53,0.6,4.85,1.89l2.52-2.44c-2.06-2.04-4.64-3.07-7.37-3.07
				C290.46,355.96,287.05,361.3,287.08,366.54"/>
		</defs>
		<use xlink:href="#SVGID_00000020363728663718416780000016179903846557622944_"  style="overflow:visible;fill:#FFFFFF;"/>
		<clipPath id="SVGID_00000073686893451441200680000004846557523073305220_">
			<use xlink:href="#SVGID_00000020363728663718416780000016179903846557622944_"  style="overflow:visible;"/>
		</clipPath>
		
			<rect x="287.05" y="355.96" style="clip-path:url(#SVGID_00000073686893451441200680000004846557523073305220_);fill:#FFFFFF;" width="18.29" height="20.93"/>
	</g>
	<g>
		<defs>
			<path id="SVGID_00000096040607657426936780000016889226192236617368_" d="M310.31,366.6c-0.09-3.38,1.86-7.2,6.59-7.2
				c4.73,0,6.62,3.78,6.57,7.17c-0.06,3.3-1.84,6.85-6.57,6.85C312.17,373.42,310.39,369.9,310.31,366.6 M306.58,366.54
				c0,5.28,3.27,10.35,10.32,10.35c7.05,0,10.24-5.19,10.29-10.38c0.06-5.25-3.38-10.55-10.29-10.55
				C309.96,355.96,306.58,361.27,306.58,366.54"/>
		</defs>
		<use xlink:href="#SVGID_00000096040607657426936780000016889226192236617368_"  style="overflow:visible;fill:#FFFFFF;"/>
		<clipPath id="SVGID_00000011750509774101815150000000121668086821800088_">
			<use xlink:href="#SVGID_00000096040607657426936780000016889226192236617368_"  style="overflow:visible;"/>
		</clipPath>
		
			<rect x="306.58" y="355.96" style="clip-path:url(#SVGID_00000011750509774101815150000000121668086821800088_);fill:#FFFFFF;" width="20.67" height="20.93"/>
	</g>
	<g>
		<defs>
			<path id="SVGID_00000150809606637430310850000012228195900213466240_" d="M333.48,359.95h4.13c4.36,0,6.19,3.12,6.28,6.25
				c0.09,3.27-1.72,6.6-6.28,6.6h-4.13V359.95z M329.72,356.36v20.07h7.88c7.02,0,10.12-5.13,10.03-10.21
				c-0.09-4.96-3.15-9.86-10.03-9.86H329.72z"/>
		</defs>
		<use xlink:href="#SVGID_00000150809606637430310850000012228195900213466240_"  style="overflow:visible;fill:#FFFFFF;"/>
		<clipPath id="SVGID_00000047043839250474683100000010985954727498520250_">
			<use xlink:href="#SVGID_00000150809606637430310850000012228195900213466240_"  style="overflow:visible;"/>
		</clipPath>
		
			<rect x="329.72" y="356.36" style="clip-path:url(#SVGID_00000047043839250474683100000010985954727498520250_);fill:#FFFFFF;" width="18.01" height="20.07"/>
	</g>
	<g>
		<defs>
			<polygon id="SVGID_00000101814184253919922780000001707487837432477615_" points="350.08,356.36 350.08,376.43 365.11,376.43 
				365.11,372.71 353.84,372.71 353.84,368.18 364.7,368.18 364.7,364.65 353.84,364.65 353.84,360.03 365.11,360.03 365.11,356.36 
							"/>
		</defs>
		<use xlink:href="#SVGID_00000101814184253919922780000001707487837432477615_"  style="overflow:visible;fill:#FFFFFF;"/>
		<clipPath id="SVGID_00000006677767722312599060000004713591476327262874_">
			<use xlink:href="#SVGID_00000101814184253919922780000001707487837432477615_"  style="overflow:visible;"/>
		</clipPath>
		
			<rect x="350.08" y="356.36" style="clip-path:url(#SVGID_00000006677767722312599060000004713591476327262874_);fill:#FFFFFF;" width="15.02" height="20.07"/>
	</g>
</g>
</svg>
